<svg width="128" height="118" viewBox="0 0 128 118" fill="none" xmlns="http://www.w3.org/2000/svg">
<g opacity="0.67" filter="url(#filter0_f_2497_2070)">
<path d="M71.4554 47.7088C75.706 51.545 85.681 55.6127 81.8449 59.8633C78.0088 64.1139 56.0823 76.2561 46.9528 71.5628C42.7022 67.7266 50.761 55.3748 54.5971 51.1242C58.4333 46.8736 67.2048 43.8727 71.4554 47.7088Z" fill="url(#paint0_linear_2497_2070)" fill-opacity="0.3"/>
</g>
<g filter="url(#filter1_ii_2497_2070)">
<path fill-rule="evenodd" clip-rule="evenodd" d="M64.8778 64.275V64.2754H56.5316C52.3774 64.2754 49.0098 60.9077 49.0098 56.7535C49.0098 52.5993 52.3774 49.2316 56.5316 49.2316H56.9438C58.4019 49.2316 59.7681 49.6249 60.9421 50.3113C62.4683 45.7895 66.7446 42.5337 71.7814 42.5337H72.3481C78.3518 42.5337 83.2188 47.4006 83.2188 53.4043C83.2188 59.408 78.3518 64.275 72.3481 64.275H64.8778Z" fill="#91DEFF"/>
</g>
<defs>
<filter id="filter0_f_2497_2070" x="0.74707" y="0.943115" width="126.959" height="116.681" filterUnits="userSpaceOnUse" color-interpolation-filters="sRGB">
<feFlood flood-opacity="0" result="BackgroundImageFix"/>
<feBlend mode="normal" in="SourceGraphic" in2="BackgroundImageFix" result="shape"/>
<feGaussianBlur stdDeviation="22.5" result="effect1_foregroundBlur_2497_2070"/>
</filter>
<filter id="filter1_ii_2497_2070" x="31.0098" y="27.5337" width="60.209" height="47.7417" filterUnits="userSpaceOnUse" color-interpolation-filters="sRGB">
<feFlood flood-opacity="0" result="BackgroundImageFix"/>
<feBlend mode="normal" in="SourceGraphic" in2="BackgroundImageFix" result="shape"/>
<feColorMatrix in="SourceAlpha" type="matrix" values="0 0 0 0 0 0 0 0 0 0 0 0 0 0 0 0 0 0 127 0" result="hardAlpha"/>
<feOffset dx="8" dy="-15"/>
<feGaussianBlur stdDeviation="15"/>
<feComposite in2="hardAlpha" operator="arithmetic" k2="-1" k3="1"/>
<feColorMatrix type="matrix" values="0 0 0 0 0 0 0 0 0 0 0 0 0 0 0 0 0 0 0.2 0"/>
<feBlend mode="normal" in2="shape" result="effect1_innerShadow_2497_2070"/>
<feColorMatrix in="SourceAlpha" type="matrix" values="0 0 0 0 0 0 0 0 0 0 0 0 0 0 0 0 0 0 127 0" result="hardAlpha"/>
<feOffset dx="-18" dy="11"/>
<feGaussianBlur stdDeviation="15"/>
<feComposite in2="hardAlpha" operator="arithmetic" k2="-1" k3="1"/>
<feColorMatrix type="matrix" values="0 0 0 0 1 0 0 0 0 1 0 0 0 0 1 0 0 0 1 0"/>
<feBlend mode="normal" in2="effect1_innerShadow_2497_2070" result="effect2_innerShadow_2497_2070"/>
</filter>
<linearGradient id="paint0_linear_2497_2070" x1="51.467" y1="73.4423" x2="76.1569" y2="45.7337" gradientUnits="userSpaceOnUse">
<stop stop-color="#254659"/>
<stop offset="1" stop-color="#023553"/>
</linearGradient>
</defs>
</svg>
