<svg width="9" height="18" viewBox="0 0 9 18" fill="none" xmlns="http://www.w3.org/2000/svg">
<path d="M4.52857 13.1645C4.27785 12.946 4.07267 12.4951 4.07267 12.1624V0.604682C4.07267 0.272138 3.80066 0.00012207 3.46811 0.00012207H2.69267C2.36013 0.00012207 2.08811 0.272131 2.08811 0.604682L2.08798 12.1621C2.08798 12.4949 1.87463 12.9358 1.61401 13.1423C1.61401 13.1423 0.5 14.0245 0.5 14.8586C0.5 16.1463 1.63318 17.1903 3.03097 17.1903C4.42853 17.1903 5.56157 16.1462 5.56157 14.8586C5.56157 14.0645 4.52857 13.1643 4.52857 13.1643L4.52857 13.1645Z" fill="white"/>
<path d="M3.82172 3.35846C3.82172 3.691 3.5497 3.96302 3.21715 3.96302H2.95236C2.61981 3.96302 2.34779 3.69101 2.34779 3.35846L2.34766 0.867255C2.34766 0.534711 2.61967 0.262695 2.95223 0.262695H3.21701C3.54956 0.262695 3.82159 0.534704 3.82159 0.867255L3.82172 3.35846Z" fill="white"/>
<path d="M7.09184 10.6013C7.09184 11.1723 6.6294 11.6349 6.05806 11.6349C5.48672 11.6349 5.02441 11.1725 5.02441 10.6013L6.04414 8.7406L7.09184 10.6013Z" fill="white"/>
<path d="M8.20451 12.2926C8.20116 12.6241 7.93035 12.89 7.59861 12.8867C7.26767 12.8838 7.00155 12.6129 7.00491 12.2813L7.60694 11.2072L8.20451 12.2926Z" fill="white"/>
<path d="M7.9874 9.64092C7.98566 9.83847 7.824 9.99705 7.6266 9.99503C7.42931 9.99316 7.27032 9.83164 7.27248 9.63424L7.63171 8.99377L7.9874 9.64092Z" fill="white"/>
<path d="M4.50661 15.3376C4.48693 15.3373 4.50407 15.3372 4.54465 15.3372C4.5847 15.3372 4.49751 15.5814 4.35045 15.8797L4.30251 15.9768C4.15572 16.2751 3.81702 16.5193 3.5501 16.5193H3.06434H2.57899C2.31207 16.5193 1.97336 16.275 1.82631 15.9768L1.77836 15.8797C1.63131 15.5814 1.54452 15.3372 1.58524 15.3372C1.62622 15.3372 1.9317 15.3372 2.26427 15.3374L3.93811 15.3377C4.27039 15.3377 4.52645 15.3376 4.50664 15.3376H4.50661Z" fill="white"/>
<path d="M2.8444 15.0755C2.4591 15.0532 2.23878 14.929 2.04163 14.5552C1.84449 14.181 1.86819 14.0372 2.06708 13.5996L2.07927 13.6011C2.54346 13.6841 2.6743 13.7483 2.86918 14.1196C3.06699 14.4932 3.04436 14.7456 2.84427 15.0752" fill="white"/>
<path d="M3.29623 14.0099C3.12453 14.0002 3.02636 13.9447 2.93862 13.7783C2.8509 13.6119 2.86134 13.5476 2.95014 13.3529L2.95523 13.3533C3.16202 13.3904 3.22042 13.4192 3.30681 13.5843C3.39467 13.7505 3.38462 13.8632 3.29556 14.01" fill="white"/>
<path d="M3.51764 15.0756C3.34233 14.8603 3.30135 14.6826 3.40434 14.3962C3.50786 14.1098 3.59572 14.0529 3.92465 13.946L3.92933 13.9535C4.11094 14.2403 4.13973 14.341 4.03795 14.6246C3.93509 14.911 3.78965 15.021 3.51764 15.0748" fill="white"/>
</svg>
