<svg width="128" height="117" viewBox="0 0 128 117" fill="none" xmlns="http://www.w3.org/2000/svg">
<path fill-rule="evenodd" clip-rule="evenodd" d="M76.8684 45.3524C76.783 45.3932 76.6964 45.4325 76.6086 45.4703C73.0321 47.0089 68.8855 45.3568 67.3468 41.7803C66.7204 40.3242 66.6229 38.7736 66.9688 37.3429C63.5728 38.9668 62.0377 42.998 63.5385 46.4868C65.0772 50.0633 69.2238 51.7154 72.8003 50.1768C74.9208 49.2646 76.3648 47.4357 76.8684 45.3524Z" fill="url(#paint0_radial_2497_2088)"/>
<g opacity="0.67" filter="url(#filter0_f_2497_2088)">
<path d="M56.5446 46.7713C52.294 50.6075 42.319 54.6752 46.1551 58.9258C49.9912 63.1764 71.9177 75.3186 81.0472 70.6253C85.2978 66.7891 77.239 54.4373 73.4029 50.1867C69.5667 45.9361 60.7952 42.9352 56.5446 46.7713Z" fill="url(#paint1_linear_2497_2088)" fill-opacity="0.3"/>
</g>
<g filter="url(#filter1_ii_2497_2088)">
<path fill-rule="evenodd" clip-rule="evenodd" d="M63.1222 63.337H71.4684C75.6226 63.337 78.9902 59.9694 78.9902 55.8151C78.9902 51.6609 75.6226 48.2933 71.4684 48.2933H71.0562C69.5981 48.2933 68.2318 48.6866 67.0577 49.373C65.5314 44.8513 61.2552 41.5957 56.2185 41.5957H55.6518C49.6481 41.5957 44.7811 46.4627 44.7811 52.4664C44.7811 58.4701 49.6481 63.337 55.6518 63.337L63.1222 63.337Z" fill="white"/>
</g>
<defs>
<filter id="filter0_f_2497_2088" x="0.293945" y="0.00561523" width="126.959" height="116.681" filterUnits="userSpaceOnUse" color-interpolation-filters="sRGB">
<feFlood flood-opacity="0" result="BackgroundImageFix"/>
<feBlend mode="normal" in="SourceGraphic" in2="BackgroundImageFix" result="shape"/>
<feGaussianBlur stdDeviation="22.5" result="effect1_foregroundBlur_2497_2088"/>
</filter>
<filter id="filter1_ii_2497_2088" x="26.7812" y="26.5957" width="60.209" height="47.7412" filterUnits="userSpaceOnUse" color-interpolation-filters="sRGB">
<feFlood flood-opacity="0" result="BackgroundImageFix"/>
<feBlend mode="normal" in="SourceGraphic" in2="BackgroundImageFix" result="shape"/>
<feColorMatrix in="SourceAlpha" type="matrix" values="0 0 0 0 0 0 0 0 0 0 0 0 0 0 0 0 0 0 127 0" result="hardAlpha"/>
<feOffset dx="8" dy="-15"/>
<feGaussianBlur stdDeviation="15"/>
<feComposite in2="hardAlpha" operator="arithmetic" k2="-1" k3="1"/>
<feColorMatrix type="matrix" values="0 0 0 0 0 0 0 0 0 0 0 0 0 0 0 0 0 0 0.2 0"/>
<feBlend mode="normal" in2="shape" result="effect1_innerShadow_2497_2088"/>
<feColorMatrix in="SourceAlpha" type="matrix" values="0 0 0 0 0 0 0 0 0 0 0 0 0 0 0 0 0 0 127 0" result="hardAlpha"/>
<feOffset dx="-18" dy="11"/>
<feGaussianBlur stdDeviation="15"/>
<feComposite in2="hardAlpha" operator="arithmetic" k2="-1" k3="1"/>
<feColorMatrix type="matrix" values="0 0 0 0 1 0 0 0 0 1 0 0 0 0 1 0 0 0 1 0"/>
<feBlend mode="normal" in2="effect1_innerShadow_2497_2088" result="effect2_innerShadow_2497_2088"/>
</filter>
<radialGradient id="paint0_radial_2497_2088" cx="0" cy="0" r="1" gradientUnits="userSpaceOnUse" gradientTransform="translate(70.1713 39.455) rotate(105.896) scale(14.0448 13.8244)">
<stop stop-color="#FFF72C"/>
<stop offset="1" stop-color="#DF7800"/>
</radialGradient>
<linearGradient id="paint1_linear_2497_2088" x1="76.533" y1="72.5048" x2="51.8431" y2="44.7962" gradientUnits="userSpaceOnUse">
<stop stop-color="#254659"/>
<stop offset="1" stop-color="#023553"/>
</linearGradient>
</defs>
</svg>
