<svg width="24" height="24" viewBox="0 0 24 24" fill="none" xmlns="http://www.w3.org/2000/svg">
<path d="M7.90809 9.01002C8.92449 8.59873 9.46823 7.46918 9.05533 6.44877C8.64362 5.43237 5.87974 3.99988 5.87974 3.99988C5.87974 3.99988 4.88772 6.95301 5.29915 7.96914C5.71219 8.98969 6.88874 9.42268 7.90809 9.00988V9.01002Z" fill="white"/>
<path d="M12.1647 15.0288C12.1647 15.0288 11.1444 17.9035 11.5557 18.9196C11.9685 19.9389 13.1422 20.3742 14.1617 19.9614C15.181 19.5488 15.7213 18.4196 15.3087 17.4003C14.8972 16.3839 12.1647 15.0287 12.1647 15.0287V15.0288Z" fill="white"/>
<path d="M5.78 13.8796C5.78 13.8796 4.66064 16.976 5.10379 18.0707C5.54802 19.1681 6.83747 19.6474 7.93502 19.2029C9.02962 18.7598 9.54271 17.5512 9.09833 16.4535C8.65488 15.3591 5.78 13.8797 5.78 13.8797V13.8796Z" fill="white"/>
<path d="M12.1402 12.9416C12.7651 12.6886 13.0134 11.9518 12.7916 11.4041C12.5374 10.7761 10.9362 9.96765 10.9362 9.96765C10.9362 9.96765 10.3476 11.6627 10.6018 12.2909C10.8236 12.8384 11.5134 13.1953 12.1402 12.9416H12.1402Z" fill="white"/>
<path d="M18.275 12.6813C18.0208 12.0533 16.4196 11.2449 16.4196 11.2449C16.4196 11.2449 15.831 12.9399 16.0852 13.5681C16.307 14.1158 16.997 14.4727 17.6236 14.219C18.2486 13.9658 18.4971 13.229 18.275 12.6812L18.275 12.6813Z" fill="white"/>
<path d="M17.0523 6.63637C16.6409 5.62011 13.8768 4.18762 13.8768 4.18762C13.8768 4.18762 12.8848 7.14074 13.2962 8.15687C13.7094 9.17741 14.886 9.61013 15.9052 9.1975C16.9213 8.78635 17.4653 7.65705 17.0523 6.63627V6.63637Z" fill="white"/>
<path d="M19.8014 18.7413C19.5472 18.1134 17.946 17.3049 17.946 17.3049C17.946 17.3049 17.3574 19 17.6116 19.6282C17.8333 20.1759 18.5232 20.5328 19.15 20.2789C19.7748 20.0259 20.0232 19.2891 19.8014 18.7413H19.8014Z" fill="white"/>
</svg>
