<svg width="25" height="24" viewBox="0 0 25 24" fill="none" xmlns="http://www.w3.org/2000/svg">
<path d="M4.43287 10.3757H12.1101C13.0389 10.3824 13.9376 10.0459 14.6335 9.4306C15.3294 8.81535 15.7736 7.96475 15.8809 7.04212C15.9843 6.00591 15.6409 4.97466 14.9367 4.20739C14.2376 3.43983 13.248 3.00163 12.2098 2.99988H10.1382C9.80496 2.99988 9.49707 3.17773 9.33044 3.46623C9.16383 3.75485 9.16383 4.11043 9.33044 4.39904C9.49705 4.68753 9.80496 4.8654 10.1382 4.8654H12.2098C12.7348 4.86607 13.2341 5.09307 13.58 5.48802C13.9258 5.88299 14.0849 6.40784 14.0164 6.92843C13.9477 7.37507 13.7192 7.78156 13.3732 8.07231C13.0274 8.3632 12.5878 8.51843 12.136 8.50945H4.4327C4.09948 8.50945 3.79159 8.68717 3.62496 8.9758C3.45834 9.26443 3.45836 9.61986 3.62496 9.90848C3.79157 10.1971 4.09948 10.3748 4.4327 10.3748L4.43287 10.3757Z" fill="white"/>
<path d="M21.4833 16.5294C21.376 15.6067 20.9319 14.7563 20.2361 14.1412C19.5402 13.5259 18.6418 13.1892 17.713 13.1958H11.2999C10.9667 13.1958 10.6588 13.3735 10.4921 13.6621C10.3255 13.9507 10.3255 14.3063 10.4921 14.5948C10.6588 14.8834 10.9667 15.0612 11.2999 15.0612H17.7384C18.1901 15.0522 18.6298 15.2075 18.9756 15.4983C19.3216 15.7892 19.5501 16.1957 19.6188 16.6422C19.6873 17.1628 19.5284 17.6876 19.1824 18.0826C18.8365 18.4776 18.3372 18.7045 17.8122 18.7053H15.7398C15.4066 18.7053 15.0987 18.8831 14.932 19.1717C14.7654 19.4602 14.7654 19.8157 14.932 20.1044C15.0986 20.393 15.4066 20.5707 15.7398 20.5707H17.8113C18.8499 20.5698 19.8403 20.1318 20.5398 19.3642C21.2437 18.5968 21.5868 17.5655 21.483 16.5294L21.4833 16.5294Z" fill="white"/>
<path d="M9.24479 14.1293C9.24466 13.8818 9.14635 13.6446 8.97157 13.4696C8.79666 13.2945 8.55946 13.1959 8.31212 13.1957H4.43269C4.09948 13.1957 3.79158 13.3734 3.62496 13.662C3.45835 13.9506 3.45835 14.3062 3.62496 14.5947C3.79156 14.8833 4.09947 15.0611 4.43269 15.0611H8.31212C8.55922 15.0608 8.79613 14.9625 8.97092 14.7878C9.14571 14.6132 9.24427 14.3764 9.24481 14.1293L9.24479 14.1293Z" fill="white"/>
<path d="M16.2052 10.9781C16.2848 10.9781 16.3611 10.9465 16.4173 10.8903L17.0495 10.2581H17.0494C17.9182 10.4304 18.8143 10.1413 19.4188 9.49407C20.0234 8.84679 20.2505 7.93314 20.0194 7.07812C19.9918 6.9742 19.9106 6.89303 19.8067 6.86544C18.9517 6.63442 18.038 6.86156 17.3907 7.46599C16.7435 8.07056 16.4544 8.96668 16.6267 9.83545L15.9931 10.4657C15.9074 10.5516 15.8817 10.6805 15.9281 10.7926C15.9746 10.9047 16.0839 10.9777 16.2052 10.9779L16.2052 10.9781Z" fill="white"/>
<path d="M9.7314 16.3242L9.09923 15.6921C8.98151 15.5784 8.79441 15.5801 8.67868 15.6958C8.56295 15.8115 8.56135 15.9986 8.67506 16.1164L9.30682 16.7485V16.7484C9.14409 17.5851 9.40579 18.4478 10.0058 19.0531C10.6298 19.6705 12.0245 20.1948 12.6998 19.5031H12.6999C12.9307 18.6483 12.7037 17.7351 12.0996 17.0879C11.4955 16.4407 10.5999 16.1515 9.73138 16.3231L9.7314 16.3242Z" fill="white"/>
</svg>
